<?xml version="1.0" encoding="utf-8"?>
<!-- Generator: Adobe Illustrator 26.0.2, SVG Export Plug-In . SVG Version: 6.00 Build 0)  -->
<svg version="1.1" id="Vrstva_1" xmlns="http://www.w3.org/2000/svg" xmlns:xlink="http://www.w3.org/1999/xlink" x="0px" y="0px"
	 viewBox="0 0 1000 1000" style="enable-background:new 0 0 1000 1000;" xml:space="preserve">
<style type="text/css">
	.st0{clip-path:url(#SVGID_00000073688392985210735120000013781916167167056051_);fill:#6AA844;}
	.st1{fill:#DE972D;}
	.st2{fill:#6AA844;}
</style>
<g>
	<g>
		<defs>
			<rect id="SVGID_1_" x="159.6" y="4.4" width="677.4" height="950.1"/>
		</defs>
		<clipPath id="SVGID_00000127730317432229329820000003713258012613676460_">
			<use xlink:href="#SVGID_1_"  style="overflow:visible;"/>
		</clipPath>
		<path style="clip-path:url(#SVGID_00000127730317432229329820000003713258012613676460_);fill:#6AA844;" d="M667.3,171.3
			c0,92.2-75.3,166.9-168.2,166.9c-92.9,0-168.2-74.7-168.2-166.9S406.1,4.4,499.1,4.4C592,4.4,667.3,79.1,667.3,171.3"/>
	</g>
	<polygon class="st1" points="498.3,433.5 166.9,279.5 159.6,475.3 497.6,602.3 497.6,602.9 498.3,602.6 499.1,602.9 499.1,602.3 
		837,475.3 829.7,279.5 	"/>
	<polygon class="st2" points="498.3,631.3 497.6,631.1 497.6,631.6 159.6,758.6 166.9,954.5 498.3,800.5 829.7,954.5 837,758.6 
		499.1,631.6 499.1,631.1 	"/>
</g>
</svg>
