<svg width="112" height="61" viewBox="0 0 112 61" fill="none" xmlns="http://www.w3.org/2000/svg">
<path d="M0 13.3233C27.5198 2.11428 52.8189 -0.964013 85.6791 0.789429C101.414 10.4139 109.071 25.7663 102.79 39.0535C107.095 43.2228 109.343 46.1711 112 49.0935L107.136 54.7305C100.461 45.197 75.6657 21.2593 75.6657 21.2593C75.6657 21.2593 46.7427 13.2714 27.5879 13.739C44.0997 16.3367 68.8675 25.0779 68.8675 25.0779C68.8675 25.0779 88.8943 45.7815 92.6817 52.8992C86.0061 58.2634 79.8754 60.1857 71.2517 60.6923C62.0966 61.2768 51.4293 60.1077 42.4377 53.8213C32.5196 46.8855 28.1328 37.7936 20.994 29.2472C13.5692 20.402 4.87726 14.1286 0 13.3233Z" fill="#00B932"/>
</svg>
