<svg width="20" height="16" viewBox="0 0 20 16" fill="none" xmlns="http://www.w3.org/2000/svg">
<g clip-path="url(#clip0_42_674)">
<path d="M-4.4269e-05 3.75879C3.01746 5.6407 5.82745 7.33267 8.56745 9.1346C9.56745 9.7969 10.35 9.85938 11.38 9.17209C13.8 7.5576 16.3 6.06057 18.77 4.52105C19.11 4.30861 19.4675 4.12367 19.9725 3.84126C19.9725 7.39765 20.025 10.7916 19.945 14.183C19.9175 15.3252 19.085 15.98 17.93 15.985C12.645 16.005 7.35995 16.005 2.07495 15.985C0.857453 15.985 0.0349576 15.2352 0.0174576 14.0881C-0.0200424 10.7266 -4.4269e-05 7.36516 -4.4269e-05 3.75879Z" fill="#00BA33"/>
<path d="M0.0224609 1.75678C0.364961 0.484675 1.12246 0.00732422 2.27246 0.00732422C7.43913 0.00732422 12.6016 0.00732422 17.76 0.00732422C18.9 0.00732422 19.6525 0.507165 19.9825 1.76927C18.2825 2.8356 16.5708 3.9086 14.8475 4.98827C13.4725 5.848 12.1125 6.73772 10.705 7.53997C10.385 7.72491 9.79746 7.82488 9.51996 7.65494C6.34746 5.73304 3.22246 3.75865 0.0224609 1.75678Z" fill="#00BA33"/>
</g>
<defs>
<clipPath id="clip0_42_674">
<rect width="20" height="16" fill="white"/>
</clipPath>
</defs>
</svg>
