<svg width="105" height="91" viewBox="0 0 105 91" fill="none" xmlns="http://www.w3.org/2000/svg">
<g clip-path="url(#clip0_42_426)">
<path d="M35.3592 3.87901L46.3916 3.84363L44.104 38.5265L32.2742 55.8322L34.1594 65.3934L27.5213 76.5922C27.5213 76.5922 19.4282 79.9051 12.8601 76.2175L20.6901 66.4644L19.6263 59.7928L13.1356 59.3229L4.3125 69.8297C-0.310229 66.3267 0.754692 57.6723 0.754692 57.6723L10.0483 47.6833L18.8352 47.9016L29.9408 32.5509L35.3592 3.87901Z" fill="#FF9C00"/>
<path d="M58.675 2.93298L66.2054 2.76001L67.5279 20.7494L58.8629 21.2533L58.675 2.93298Z" fill="#00BA33"/>
<path d="M58.9856 30.3835L67.5277 29.4283L68.9514 41.3712L62.3316 55.2769L50.3062 53.4719L58.6748 40.2656L58.9856 30.3835Z" fill="#00BA33"/>
<path d="M47.336 63.6549L59.73 64.6777L50.8049 87.6609L35.708 84.1863L47.336 63.6549Z" fill="#00BA33"/>
<path d="M63.7769 88.285L84.4095 42.3488L77.1899 1.00777L92.0121 0L105.049 43.507L88.3264 91.1354L63.7769 88.285Z" fill="#FF9C00"/>
</g>
<defs>
<clipPath id="clip0_42_426">
<rect width="104.789" height="91" fill="white"/>
</clipPath>
</defs>
</svg>
