<svg width="29" height="43" viewBox="0 0 29 43" fill="none" xmlns="http://www.w3.org/2000/svg">
<path d="M21.5427 7.90003C21.5427 9.29298 21.1297 10.6546 20.3558 11.8128C19.5819 12.971 18.482 13.8737 17.1951 14.4068C15.9082 14.9398 14.4921 15.0793 13.1259 14.8076C11.7597 14.5358 10.5048 13.865 9.51984 12.8801C8.53488 11.8951 7.86411 10.6402 7.59236 9.27403C7.32061 7.90785 7.46008 6.49176 7.99314 5.20485C8.5262 3.91794 9.4289 2.81799 10.5871 2.04411C11.7453 1.27023 13.1069 0.857178 14.4999 0.857178C16.3678 0.857178 18.1592 1.59919 19.4799 2.91998C20.8007 4.24077 21.5427 6.03215 21.5427 7.90003Z" fill="white"/>
<path d="M14.5037 19.167L0.307315 12.457L0 20.9902L14.4663 26.5201V26.5427L14.5037 26.5352L14.5337 26.5427V26.5201L29 20.9902L28.6927 12.457L14.5037 19.167Z" fill="white"/>
<path d="M14.5037 28.2075L14.4663 28.2V28.2226L0 33.7525L0.307315 42.2857L14.5037 35.5757L28.6927 42.2857L29 33.7525L14.5337 28.2226V28.2L14.5037 28.2075Z" fill="white"/>
</svg>
