<svg width="33" height="46" viewBox="0 0 33 46" fill="none" xmlns="http://www.w3.org/2000/svg">
<path d="M23.92 7.82C23.92 9.36665 23.4614 10.8786 22.6021 12.1646C21.7429 13.4505 20.5215 14.4529 19.0926 15.0447C17.6637 15.6366 16.0914 15.7915 14.5744 15.4897C13.0575 15.188 11.6641 14.4432 10.5705 13.3496C9.47681 12.2559 8.73203 10.8625 8.43029 9.3456C8.12856 7.82867 8.28342 6.25633 8.87529 4.82741C9.46717 3.3985 10.4695 2.17718 11.7555 1.31791C13.0415 0.458635 14.5534 0 16.1 0C18.174 0 20.1631 0.82389 21.6296 2.29042C23.0961 3.75696 23.92 5.74601 23.92 7.82Z" fill="#00BA33"/>
<path d="M16.1042 20.3303L0.341225 12.8799L0 22.3546L16.0625 28.4947V28.5199L16.1042 28.5115L16.1375 28.5199V28.4947L32.2 22.3546L31.8588 12.8799L16.1042 20.3303Z" fill="#FF9C00"/>
<path d="M16.1042 30.3683L16.0625 30.3599V30.3851L0 36.5251L0.341225 45.9999L16.1042 38.5494L31.8588 45.9999L32.2 36.5251L16.1375 30.3851V30.3599L16.1042 30.3683Z" fill="#00BA33"/>
</svg>
