<svg width="86" height="112" viewBox="0 0 86 112" fill="none" xmlns="http://www.w3.org/2000/svg">
<path d="M27.8224 29.3642C36.0766 29.3642 42.768 22.7908 42.768 14.6821C42.768 6.57341 36.0766 0 27.8224 0C19.5681 0 12.8767 6.57341 12.8767 14.6821C12.8767 22.7908 19.5681 29.3642 27.8224 29.3642Z" fill="#FF9C00"/>
<path d="M10.2848 112L0 69.8022L12.8768 32.3267L54.3668 35.7632L48.6477 48.573L31.7937 46.3867L19.9097 70.1458L31.9245 108.374L10.2848 112Z" fill="#FF9C00"/>
<path d="M41.7991 57.6146L75.4119 43.5546L85.9999 96.364L70.3765 103.829C70.1863 94.0651 62.8502 90.2435 53.3204 93.0875L41.7991 57.6146Z" fill="#00BA33"/>
<path d="M66.4649 104.12C66.4649 108.546 62.8087 111.431 58.3084 111.431C53.808 111.431 50.1519 108.546 50.1519 104.12C50.1519 99.6938 53.8021 96.5594 58.3084 96.5594C62.8147 96.5594 66.4649 99.6819 66.4649 104.12Z" fill="#00BA33"/>
</svg>
