<svg width="30" height="40" viewBox="0 0 30 40" fill="none" xmlns="http://www.w3.org/2000/svg">
<g clip-path="url(#clip0_42_648)">
<path d="M9.70555 11.1249C12.5849 11.1249 14.9192 8.83599 14.9192 6.01242C14.9192 3.18886 12.5849 0.899902 9.70555 0.899902C6.82615 0.899902 4.49194 3.18886 4.49194 6.01242C4.49194 8.83599 6.82615 11.1249 9.70555 11.1249Z" fill="white"/>
<path d="M3.58772 39.8999L0 25.206L4.49191 12.1565L18.9652 13.3531L16.9701 17.8137L11.0908 17.0524L6.94525 25.3257L11.1365 38.6372L3.58772 39.8999Z" fill="white"/>
<path d="M14.5811 20.9621L26.3065 16.0662L30 34.4551L24.5499 37.0547C24.4836 33.6546 21.9245 32.3239 18.6001 33.3142L14.5811 20.9621Z" fill="white"/>
<path d="M23.1855 37.1558C23.1855 38.697 21.9101 39.7017 20.3402 39.7017C18.7703 39.7017 17.4949 38.697 17.4949 37.1558C17.4949 35.6146 18.7682 34.5232 20.3402 34.5232C21.9121 34.5232 23.1855 35.6105 23.1855 37.1558Z" fill="white"/>
</g>
<defs>
<clipPath id="clip0_42_648">
<rect width="30" height="39" fill="white" transform="translate(0 0.899902)"/>
</clipPath>
</defs>
</svg>
