<svg width="36" height="48" viewBox="0 0 36 48" fill="none" xmlns="http://www.w3.org/2000/svg">
<g clip-path="url(#clip0_42_486)">
<path fill-rule="evenodd" clip-rule="evenodd" d="M21.4285 -0.43042H0V47.9999H35.8282V14.0606H21.4285V-0.43042ZM35.5054 10.6013H25.0122V0.109842L35.5054 10.6013ZM6.54545 30.6206V40.5517H8.55672V37.3318H10.2475C10.9783 37.3318 11.6007 37.1912 12.1148 36.91C12.6319 36.6287 13.0267 36.2359 13.2992 35.7316C13.5717 35.2273 13.708 34.6454 13.708 33.9859C13.708 33.3265 13.5733 32.7446 13.3039 32.2402C13.0376 31.7327 12.6505 31.3367 12.1426 31.0522C11.6348 30.7645 11.0201 30.6206 10.2986 30.6206H6.54545ZM8.55672 35.6492H9.92234C10.3094 35.6492 10.6284 35.5797 10.8792 35.4407C11.1331 35.2984 11.322 35.1029 11.4459 34.8539C11.5728 34.6018 11.6363 34.3124 11.6363 33.9859C11.6363 33.6562 11.5728 33.3685 11.4459 33.1228C11.322 32.8739 11.1331 32.6815 10.8792 32.5457C10.6253 32.4067 10.3032 32.3372 9.91305 32.3372H8.55672V35.6492ZM15.1452 40.5517H18.5174C19.4836 40.5517 20.3135 40.3529 21.0071 39.9552C21.7039 39.5576 22.238 38.987 22.6096 38.2435C22.9843 37.4999 23.1717 36.6109 23.1717 35.5765C23.1717 34.5452 22.9843 33.6594 22.6096 32.9191C22.238 32.1788 21.707 31.6115 21.0164 31.2171C20.3259 30.8194 19.5022 30.6206 18.5453 30.6206H15.1452V40.5517ZM18.4338 38.7526H17.1564V32.4197H18.4385C19.033 32.4197 19.5331 32.5296 19.9388 32.7494C20.3444 32.9692 20.6495 33.3119 20.8538 33.7774C21.0613 34.2429 21.165 34.8426 21.165 35.5765C21.165 36.3168 21.0613 36.9213 20.8538 37.39C20.6495 37.8555 20.3429 38.1998 19.9341 38.4229C19.5285 38.6427 19.0284 38.7526 18.4338 38.7526ZM24.7923 40.5517V30.6206H31.0909V32.3518H26.8036V34.7182H30.6729V36.4493H26.8036V40.5517H24.7923Z" fill="#00B932"/>
</g>
<defs>
<clipPath id="clip0_42_486">
<rect width="36" height="48" fill="white"/>
</clipPath>
</defs>
</svg>
