<svg width="57" height="52" viewBox="0 0 57 52" fill="none" xmlns="http://www.w3.org/2000/svg">
<g clip-path="url(#clip0_92_432)">
<path d="M38.4281 50.4057C36.5721 50.1311 34.8765 49.4357 33.2104 48.6562C28.9877 46.6838 25.0389 44.199 21.4604 41.2625C17.4956 38.0118 14.0763 34.293 11.2573 30.0659C9.38161 27.2607 7.82939 24.2672 6.62875 21.1395C5.80601 18.9672 5.1318 16.7462 4.61051 14.4909C4.23641 12.9033 4.54176 11.4283 5.27718 10.0086C6.07991 8.45985 7.20823 7.15022 8.46065 5.93444C10.1762 4.25518 12.1 2.7872 14.1892 1.56329C15.1313 1.01567 16.009 1.11375 16.688 1.95312C17.7112 3.22419 18.7192 4.51417 19.6249 5.86457C20.9331 7.81553 22.1472 9.82677 23.3932 11.8139C23.7373 12.3637 23.9059 12.9582 23.5364 13.5435C23.347 13.829 23.104 14.0776 22.8198 14.2764C21.8792 14.9529 20.8897 15.565 19.9702 16.2652C19.1089 16.9206 18.2967 17.6392 17.4951 18.3634C16.8898 18.9097 16.7995 19.4173 17.1715 20.1523C17.5828 20.967 18.0339 21.7647 18.499 22.5526C20.0034 25.101 21.6936 27.5262 23.6457 29.7821C26.1168 32.6299 28.9307 35.1147 32.1389 37.1749C32.297 37.2763 32.4695 37.3562 32.63 37.4542C33.2333 37.8215 33.7963 37.7576 34.3543 37.3583C35.4556 36.5701 36.3736 35.5996 37.2883 34.6256C37.8508 34.0269 38.4118 33.4255 38.9485 32.8043C39.6561 31.9846 40.8806 32.0735 41.5759 32.6528C44.0854 34.7321 46.6093 36.7942 49.1263 38.8652C49.7528 39.3814 50.3893 39.8884 50.9927 40.4292C51.8089 41.1611 51.9003 41.882 51.1967 42.7102C50.5864 43.4164 49.9241 44.079 49.2149 44.6929C47.492 46.2051 45.6801 47.6132 43.6329 48.7061C42.3568 49.3889 41.0411 49.9945 39.6372 50.3929C39.2648 50.496 38.8323 50.4059 38.4281 50.4057Z" fill="white"/>
</g>
<defs>
<clipPath id="clip0_92_432">
<rect width="50.5857" height="45.768" fill="white" transform="translate(6.12793) rotate(7.48466)"/>
</clipPath>
</defs>
</svg>
