<svg width="57" height="74" viewBox="0 0 57 74" fill="none" xmlns="http://www.w3.org/2000/svg">
<g clip-path="url(#clip0_42_351)">
<path fill-rule="evenodd" clip-rule="evenodd" d="M33.9285 -0.663475H0V74H56.728V21.6769H33.9285V-0.663475ZM56.2169 16.3438H39.6026V0.169433L56.2169 16.3438ZM10.4289 36.3365C12.3249 36.3365 13.8619 34.8228 13.8619 32.9555C13.8619 31.0882 12.3249 29.5745 10.4289 29.5745C8.53295 29.5745 6.99596 31.0882 6.99596 32.9555C6.99596 34.8228 8.53295 36.3365 10.4289 36.3365ZM13.8619 45.5483C13.8619 47.4156 12.3249 48.9293 10.4289 48.9293C8.53295 48.9293 6.99596 47.4156 6.99596 45.5483C6.99596 43.681 8.53295 42.1672 10.4289 42.1672C12.3249 42.1672 13.8619 43.681 13.8619 45.5483ZM10.4289 61.5221C12.3249 61.5221 13.8619 60.0083 13.8619 58.141C13.8619 56.2737 12.3249 54.76 10.4289 54.76C8.53295 54.76 6.99596 56.2737 6.99596 58.141C6.99596 60.0083 8.53295 61.5221 10.4289 61.5221ZM21.0385 30.7228H50.0955V34.9459H21.0385V30.7228ZM50.0955 43.4431H21.0385V47.6662H50.0955V43.4431ZM21.0385 56.0358H50.0955V60.2589H21.0385V56.0358Z" fill="#00BA33"/>
</g>
<defs>
<clipPath id="clip0_42_351">
<rect width="57" height="74" fill="white"/>
</clipPath>
</defs>
</svg>
