<svg width="70" height="79" viewBox="0 0 70 79" fill="none" xmlns="http://www.w3.org/2000/svg">
<path d="M46.7307 12.9177L50.5929 12.9177L54.3186 13.0466L54.199 35.2833L59.706 41.4314L59.0521 52.424C59.0521 52.424 55.7266 56.9453 49.5241 56.9874L50.5929 47.6264L46.6342 43.1828L40.679 46.0351L38.7521 55.6833C33.6142 54.7339 31.5485 48.7884 31.5485 48.7884L33.9564 38.102L42.0211 33.9886L46.7307 12.9177Z" fill="#00BA33"/>
<path d="M18.3886 19.386C23.8441 19.386 28.2666 15.0463 28.2666 9.69299C28.2666 4.3397 23.8441 0 18.3886 0C12.9332 0 8.51074 4.3397 8.51074 9.69299C8.51074 15.0463 12.9332 19.386 18.3886 19.386Z" fill="#00BA33"/>
<path d="M6.79745 73.9413L0 46.0828L8.51056 21.3418L35.9322 23.6105L32.1523 32.0675L21.0131 30.6241L13.1588 46.3096L21.0996 71.5474L6.79745 73.9413Z" fill="#00BA33"/>
<path d="M38.8613 60.6983L46.9758 60.9048L50.8543 68.0354L46.6182 74.9595L38.5037 74.7531L34.6253 67.6225L38.8613 60.6983Z" fill="#00BA33"/>
</svg>
