<svg width="136" height="54" viewBox="0 0 136 54" fill="none" xmlns="http://www.w3.org/2000/svg">
<g clip-path="url(#clip0_35_563)">
<path d="M29.8947 9.48529C29.8947 11.3613 29.3137 13.1952 28.2252 14.755C27.1366 16.3149 25.5895 17.5306 23.7793 18.2485C21.9691 18.9665 19.9773 19.1543 18.0556 18.7883C16.1339 18.4223 14.3688 17.5189 12.9833 16.1924C11.5979 14.8659 10.6544 13.1757 10.2721 11.3358C9.8899 9.49581 10.0861 7.58863 10.8359 5.85542C11.5857 4.12221 12.8554 2.64082 14.4845 1.59856C16.1136 0.556302 18.0289 0 19.9883 0C22.6156 0 25.1354 0.99934 26.9932 2.77818C28.851 4.55701 29.8947 6.96963 29.8947 9.48529Z" fill="#00BA33"/>
<path d="M19.9469 24.3893L0.422648 15.6344L0 26.768L19.8954 33.9831V34.0128L19.9469 34.0029L19.9882 34.0128V33.9831L39.8836 26.768L39.4609 15.6344L19.9469 24.3893Z" fill="#FF9C00"/>
<path d="M19.9469 35.6315L19.8954 35.6216V35.6512L0 42.8663L0.422648 53.9999L19.9469 45.2451L39.4609 53.9999L39.8836 42.8663L19.9882 35.6512V35.6216L19.9469 35.6315Z" fill="#00BA33"/>
<path d="M64.459 18.3488C66.3661 18.3488 67.5515 17.3617 67.5515 15.8911C67.5515 14.4204 66.3661 13.4136 64.459 13.4136H60.985V18.3488H64.459ZM58.4182 11.3804H64.6033C67.9536 11.3804 70.1699 13.078 70.1699 15.8516C70.1699 18.6251 67.9123 20.4018 64.5827 20.4018H60.985V25.5145H58.4182V11.3804Z" fill="black"/>
<path d="M72.3037 15.368H74.6231V16.7104H74.8293C75.0972 16.2416 75.4925 15.8509 75.9735 15.5799C76.4544 15.3088 77.003 15.1674 77.561 15.1706C77.9907 15.1514 78.4188 15.2327 78.8084 15.4075V17.4704C78.2879 17.2651 77.7321 17.1547 77.1693 17.1446C75.6849 17.1446 74.6644 18.3685 74.6644 20.1847V25.5146H72.3037V15.368Z" fill="black"/>
<path d="M87.2819 21.5369V20.7275L84.6945 21.0137C82.9421 21.1914 82.1071 21.8724 82.1071 22.7509C82.1071 23.6293 82.8802 24.1229 84.1688 24.1229C84.5522 24.1581 84.9391 24.1179 85.3057 24.0046C85.6723 23.8914 86.0109 23.7075 86.3005 23.4644C86.5902 23.2213 86.8249 22.924 86.9901 22.5908C87.1553 22.2576 87.2476 21.8956 87.2613 21.527L87.2819 21.5369ZM79.7773 22.8693C79.7773 21.0137 81.4576 19.7306 84.6326 19.395L87.2613 19.1187V18.7535C87.2613 17.5592 86.3851 16.7794 84.88 16.7794C83.375 16.7794 82.5916 17.4506 82.6122 18.5758H80.2928C80.2928 16.3945 82.1071 14.983 84.9213 14.983C87.7355 14.983 89.6838 16.4636 89.6838 18.7535V25.485H87.2819V24.1031H87.0964C86.7163 24.6552 86.1891 25.1 85.5692 25.3915C84.9494 25.683 84.2595 25.8107 83.5709 25.7613C81.2927 25.7613 79.798 24.6262 79.798 22.8496" fill="black"/>
<path d="M95.0753 10.7783L96.5597 12.4365H96.7659L98.209 10.7783H100.271L97.941 13.7394H95.3948L93.0754 10.7783H95.0753ZM91.4673 24.4782L97.3947 17.5098V17.3025H91.6838V15.3285H100.961V16.3649L95.1371 23.3332V23.5405H101.168V25.5146H91.4673V24.4782Z" fill="black"/>
<path d="M102.796 22.0797H104.961C104.961 23.3727 106.054 24.2117 107.786 24.2117C109.198 24.2117 110.074 23.6392 110.074 22.741C109.95 21.6553 109.198 21.5368 107.342 21.3394C104.961 21.1026 103.023 20.6189 102.941 18.2797C102.941 16.2267 104.734 14.9731 107.425 14.9731C110.115 14.9731 112.074 16.3254 112.074 18.4277H109.847C109.847 17.3617 108.816 16.6708 107.404 16.6708C105.992 16.6708 105.157 17.2433 105.157 18.1415C105.157 18.8423 105.755 19.1285 106.384 19.247C106.693 19.3062 107.239 19.3851 108.033 19.4838C109.112 19.5745 110.163 19.8662 111.126 20.3425C111.531 20.5721 111.858 20.9079 112.07 21.3102C112.282 21.7125 112.369 22.1645 112.321 22.6127C112.321 24.6953 110.61 25.8896 107.683 25.8896C104.59 25.8896 102.765 24.4782 102.765 22.0797" fill="black"/>
<path d="M114.764 10.7783H117.125V19.5233H117.331L121.341 15.368H124.32L119.486 20.2439L124.423 25.5146H121.424L117.331 20.9841H117.125V25.5146H114.764V10.7783Z" fill="black"/>
<path d="M129.196 13.7295L131.413 10.7684H133.804L131.33 13.7295H129.196ZM133.536 19.4641C133.42 18.7254 133.031 18.051 132.44 17.5636C131.849 17.0761 131.095 16.808 130.315 16.808C129.535 16.808 128.78 17.0761 128.189 17.5636C127.598 18.051 127.209 18.7254 127.093 19.4641H133.536ZM124.65 20.3228C124.737 18.9396 125.373 17.6405 126.426 16.6906C127.48 15.7408 128.873 15.2118 130.32 15.2118C131.767 15.2118 133.16 15.7408 134.213 16.6906C135.267 17.6405 135.902 18.9396 135.99 20.3228C136.006 20.5891 136.006 20.856 135.99 21.1223H127.124C127.203 21.9311 127.6 22.6807 128.236 23.2182C128.872 23.7556 129.699 24.0404 130.547 24.0143C131.172 24.0272 131.79 23.878 132.334 23.5827C132.878 23.2874 133.329 22.8567 133.639 22.3363L135.598 23.0569C134.835 24.8138 132.866 25.8501 130.444 25.8501C129.676 25.8764 128.911 25.7509 128.196 25.4813C127.481 25.2117 126.832 24.8039 126.289 24.2833C125.747 23.7627 125.322 23.1406 125.042 22.4558C124.761 21.7709 124.632 21.0381 124.66 20.3031" fill="black"/>
<path d="M57.645 41.5536H60.1912C60.1912 43.4487 61.6241 44.5147 64.1084 44.5147C66.1701 44.5147 67.4278 43.6955 67.4278 42.3235C67.3041 40.7048 66.0877 40.4186 63.6446 40.0435C61.2015 39.6684 59.8098 39.3427 58.6862 38.2076C58.0909 37.5581 57.7839 36.7117 57.8306 35.8487C57.8306 33.2528 59.9954 31.5156 63.6446 31.5156C67.2938 31.5156 69.675 33.391 69.675 36.3718H67.2113C67.2113 34.6445 65.9743 33.5588 63.6961 33.5588C61.6344 33.5588 60.4592 34.3977 60.4592 35.7006C60.5829 37.2798 61.8303 37.5167 64.294 37.9214C66.7577 38.3261 68.1288 38.6321 69.2421 39.777C69.8166 40.4396 70.1076 41.286 70.0565 42.1459C70.0565 44.8898 67.7989 46.5578 64.0466 46.5578C60.1294 46.5578 57.645 44.5838 57.645 41.5142" fill="black"/>
<path d="M74.8705 31.4268H72.4893V46.163H74.8705V31.4268Z" fill="black"/>
<path d="M87.4882 46.1631H85.1275V44.801H84.9213C84.5871 45.3218 84.1185 45.7515 83.5607 46.0489C83.0028 46.3462 82.3744 46.5011 81.736 46.4987C81.1509 46.5029 80.5712 46.391 80.0335 46.1701C79.4957 45.9492 79.0116 45.624 78.6116 45.2151C78.2117 44.8061 77.9045 44.3223 77.7095 43.7941C77.5145 43.2658 77.4359 42.7047 77.4786 42.1459V36.0165H79.8599V41.9386C79.8231 42.2627 79.859 42.5907 79.9652 42.9004C80.0715 43.2102 80.2456 43.4947 80.4759 43.7348C80.7062 43.9749 80.9874 44.1652 81.3007 44.2929C81.6141 44.4206 81.9522 44.4828 82.2927 44.4753C82.6643 44.4792 83.0331 44.4123 83.3776 44.2785C83.722 44.1448 84.0352 43.9467 84.299 43.696C84.5628 43.4453 84.7719 43.1468 84.9141 42.818C85.0564 42.4892 85.1289 42.1366 85.1275 41.7807V36.0165H87.4882V46.1631Z" fill="black"/>
<path d="M93.1168 31.4268L94.6012 33.085H94.8383L96.2815 31.4268H98.3432L96.0031 34.3878H93.4363L91.1169 31.4268H93.1168ZM89.5088 45.1266L95.4362 38.1583V37.951H89.684V35.9769H98.9617V37.0232L93.1786 44.0212V44.2284H99.2091V46.2025H89.5088V45.1266Z" fill="black"/>
<path d="M110.301 41.0897C110.263 40.452 110.03 39.839 109.632 39.3266C109.233 38.8142 108.687 38.4248 108.06 38.2066C107.433 37.9885 106.753 37.9511 106.104 38.0992C105.455 38.2472 104.865 38.5742 104.408 39.0396C103.951 39.5051 103.647 40.0886 103.533 40.7179C103.419 41.3473 103.5 41.9949 103.766 42.5806C104.032 43.1664 104.471 43.6646 105.03 44.0136C105.589 44.3626 106.242 44.5471 106.909 44.5443C107.371 44.5382 107.827 44.4431 108.25 44.2647C108.673 44.0863 109.054 43.8282 109.371 43.5059C109.687 43.1835 109.933 42.8035 110.092 42.3884C110.252 41.9733 110.323 41.5316 110.301 41.0897ZM103.796 44.7812H103.59V46.163H101.229V31.4268H103.611V37.3489H103.817C104.217 36.7947 104.759 36.3477 105.39 36.0505C106.022 35.7534 106.722 35.6159 107.425 35.6512C108.151 35.6592 108.868 35.8086 109.532 36.0903C110.195 36.372 110.792 36.7802 111.286 37.2899C111.78 37.7996 112.16 38.4003 112.404 39.0552C112.647 39.7102 112.749 40.4058 112.703 41.0996C112.746 41.7934 112.642 42.4885 112.396 43.1425C112.149 43.7964 111.767 44.3956 111.271 44.9034C110.775 45.4113 110.177 45.8172 109.512 46.0966C108.847 46.3759 108.13 46.5227 107.404 46.5282C106.7 46.5636 105.998 46.4218 105.369 46.1171C104.74 45.8123 104.205 45.3552 103.817 44.791" fill="black"/>
<path d="M118.27 50.7526H115.723C115.723 50.7526 117.455 46.8045 117.785 46.0445L113.291 36.0164H115.795L118.888 43.5473H119.094L121.95 36.0164H124.434L120.084 46.39C119.29 48.2752 118.27 50.723 118.27 50.723" fill="black"/>
</g>
<defs>
<clipPath id="clip0_35_563">
<rect width="136" height="54" fill="white"/>
</clipPath>
</defs>
</svg>
