<svg width="83" height="70" viewBox="0 0 83 70" fill="none" xmlns="http://www.w3.org/2000/svg">
<g clip-path="url(#clip0_42_364)">
<path fill-rule="evenodd" clip-rule="evenodd" d="M0 17.2329L40.3991 0.457153L83 17.2329V25.2071V32.7292V63.799H69.4892V26.8784L40.4658 14.3101L12.8214 26.8932V63.799H0V32.7292V27.1924V17.2329ZM30.4357 68.6189H36.2737L38.4199 42.2917H21.8177L23.3745 60.4461C28.7232 59.4535 31.7034 62.8064 30.4357 68.6189ZM25.4426 69.4461C27.2604 69.4461 28.7341 67.861 28.7341 65.9057C28.7341 63.9504 27.2604 62.3652 25.4426 62.3652C23.6247 62.3652 22.151 63.9504 22.151 65.9057C22.151 67.861 23.6247 69.4461 25.4426 69.4461ZM38.6426 34.6262L39.2097 39.6115H21.0618L21.5622 34.6262H38.6426ZM52.598 36.3138C55.7547 36.3138 58.3137 33.6621 58.3137 30.391C58.3137 27.1199 55.7547 24.4682 52.598 24.4682C49.4413 24.4682 46.8823 27.1199 46.8823 30.391C46.8823 33.6621 49.4413 36.3138 52.598 36.3138ZM61.9387 52.8689L58.3247 69.4571L49.8401 68.0233L53.7655 53.0123L50.7631 43.6704L43.5684 44.1116L42.3452 38.7513L58.3247 38.1557L61.9387 52.8689Z" fill="#00B932"/>
</g>
<defs>
<clipPath id="clip0_42_364">
<rect width="83" height="69" fill="white" transform="translate(0 0.457153)"/>
</clipPath>
</defs>
</svg>
