<svg width="107" height="91" viewBox="0 0 107 91" fill="none" xmlns="http://www.w3.org/2000/svg">
<g clip-path="url(#clip0_42_437)">
<path d="M103.026 91L107.177 58.124H107.236L107.207 58.0521L107.236 57.9803H107.177L95.6242 29.967L82.7737 30.671L87.5733 58.0521L82.7737 90.2889L103.026 91Z" fill="#FF9C00"/>
<path d="M36.6513 29.967L25.6366 57.9803H25.5776L25.5998 58.0521L25.5776 58.124H25.6366L29.3967 90.5906L49.6936 90.2889L43.095 58.0521L49.6936 30.671L36.6513 29.967Z" fill="#FF9C00"/>
<path d="M12.4908 47.9386L5.44253 59.1152H5.38354L5.41304 59.187L5.38354 59.2589H5.44253L6.16505 90.5906L19.6496 90.2889L17.2461 59.3163L25.5772 39.707L12.4908 47.9386Z" fill="#FF9C00"/>
<path d="M60.1387 20.4209H71.5294L75.9751 89.8722H56.6809L60.1387 20.4209Z" fill="#00BA33"/>
<path d="M69.5314 16.9516L73.5864 6.56516L51.1809 0L31.319 13.6188L10.1079 15.0912L0 21.1536L10.6535 17.8279L33.0589 20.4209L49.581 9.67535L58.0964 11.507L61.9523 16.9516H69.5314Z" fill="#00BA33"/>
</g>
<defs>
<clipPath id="clip0_42_437">
<rect width="107" height="91" fill="white"/>
</clipPath>
</defs>
</svg>
