<svg width="40" height="34" viewBox="0 0 40 34" fill="none" xmlns="http://www.w3.org/2000/svg">
<g clip-path="url(#clip0_42_658)">
<path d="M38.5144 34.0001L40.0661 21.7167H40.0882L40.0772 21.6899L40.0882 21.663H40.0661L35.7473 11.1965L30.9434 11.4595L32.7376 21.6899L30.9434 33.7344L38.5144 34.0001Z" fill="white"/>
<path d="M13.7015 11.1965L9.58382 21.663H9.56177L9.57004 21.6899L9.56177 21.7167H9.58382L10.9894 33.8471L18.5771 33.7344L16.1103 21.6899L18.5771 11.4595L13.7015 11.1965Z" fill="white"/>
<path d="M4.6696 17.9112L2.03474 22.0871H2.0127L2.02372 22.1139L2.0127 22.1408H2.03474L2.30485 33.8471L7.3458 33.7344L6.44731 22.1622L9.56173 14.8357L4.6696 17.9112Z" fill="white"/>
<path d="M22.4818 7.62988H26.7401L28.402 33.5787H21.1892L22.4818 7.62988Z" fill="white"/>
<path d="M25.9931 6.33357L27.5089 2.45292L19.133 0L11.708 5.08833L3.77865 5.63849L0 7.90354L3.98261 6.66098L12.3585 7.6298L18.535 3.61497L21.7183 4.29931L23.1597 6.33357H25.9931Z" fill="white"/>
</g>
<defs>
<clipPath id="clip0_42_658">
<rect width="40" height="34" fill="white"/>
</clipPath>
</defs>
</svg>
