<svg width="37" height="32" viewBox="0 0 37 32" fill="none" xmlns="http://www.w3.org/2000/svg">
<g clip-path="url(#clip0_42_654)">
<path d="M12.4849 1.36396L16.3803 1.35152L15.5726 13.5477L11.3956 19.6332L12.0613 22.9954L9.71742 26.9334C9.71742 26.9334 6.85983 28.0984 4.54067 26.8017L7.30537 23.372L6.92978 21.0259L4.63795 20.8607L1.52261 24.5554C-0.109629 23.3236 0.266385 20.2803 0.266385 20.2803L3.54787 16.7677L6.65044 16.8444L10.5717 11.4464L12.4849 1.36396Z" fill="white"/>
<path d="M20.7175 1.03129L23.3764 0.970459L23.8434 7.29641L20.7839 7.4736L20.7175 1.03129Z" fill="white"/>
<path d="M20.8273 10.6843L23.8435 10.3484L24.3461 14.5481L22.0088 19.438L17.7627 18.8033L20.7176 14.1593L20.8273 10.6843Z" fill="white"/>
<path d="M16.7139 22.384L21.0901 22.7437L17.9387 30.8257L12.6082 29.6039L16.7139 22.384Z" fill="white"/>
<path d="M22.519 31.0453L29.8042 14.8919L27.255 0.35438L32.4886 0L37.0919 15.2992L31.1873 32.0476L22.519 31.0453Z" fill="white"/>
</g>
<defs>
<clipPath id="clip0_42_654">
<rect width="37" height="32" fill="white"/>
</clipPath>
</defs>
</svg>
